<?xml version="1.0" encoding="UTF-8" standalone="no"?>
<!-- Created with Inkscape (http://www.inkscape.org/) -->

<svg
   xmlns:osb="http://www.openswatchbook.org/uri/2009/osb"
   xmlns:dc="http://purl.org/dc/elements/1.1/"
   xmlns:cc="http://creativecommons.org/ns#"
   xmlns:rdf="http://www.w3.org/1999/02/22-rdf-syntax-ns#"
   xmlns:svg="http://www.w3.org/2000/svg"
   xmlns="http://www.w3.org/2000/svg"
   xmlns:xlink="http://www.w3.org/1999/xlink"
   xmlns:sodipodi="http://sodipodi.sourceforge.net/DTD/sodipodi-0.dtd"
   xmlns:inkscape="http://www.inkscape.org/namespaces/inkscape"
   version="1.1"
   id="svg2"
   width="48"
   height="48"
   viewBox="0 0 48 48"
   sodipodi:docname="windstille.svg"
   inkscape:version="0.92.3 (2405546, 2018-03-11)">
  <metadata
     id="metadata8">
    <rdf:RDF>
      <cc:Work
         rdf:about="">
        <dc:format>image/svg+xml</dc:format>
        <dc:type
           rdf:resource="http://purl.org/dc/dcmitype/StillImage" />
        <dc:title></dc:title>
      </cc:Work>
    </rdf:RDF>
  </metadata>
  <defs
     id="defs6">
    <linearGradient
       inkscape:collect="always"
       id="linearGradient969">
      <stop
         style="stop-color:#000000;stop-opacity:1;"
         offset="0"
         id="stop965" />
      <stop
         style="stop-color:#000000;stop-opacity:0;"
         offset="1"
         id="stop967" />
    </linearGradient>
    <linearGradient
       id="linearGradient937"
       inkscape:collect="always">
      <stop
         id="stop933"
         offset="0"
         style="stop-color:#f6f6f6;stop-opacity:1" />
      <stop
         id="stop935"
         offset="1"
         style="stop-color:#accbf2;stop-opacity:0.05825243" />
    </linearGradient>
    <linearGradient
       inkscape:collect="always"
       id="linearGradient921">
      <stop
         style="stop-color:#050505;stop-opacity:1"
         offset="0"
         id="stop917" />
      <stop
         style="stop-color:#accbf2;stop-opacity:1"
         offset="1"
         id="stop919" />
    </linearGradient>
    <linearGradient
       inkscape:collect="always"
       id="linearGradient891"
       osb:paint="gradient">
      <stop
         style="stop-color:#ffffff;stop-opacity:1;"
         offset="0"
         id="stop887" />
      <stop
         style="stop-color:#add8e6;stop-opacity:0;"
         offset="1"
         id="stop889" />
    </linearGradient>
    <linearGradient
       inkscape:collect="always"
       xlink:href="#linearGradient921"
       id="linearGradient927"
       x1="26.166588"
       y1="3.4020984"
       x2="26.166588"
       y2="46.448757"
       gradientUnits="userSpaceOnUse" />
    <radialGradient
       inkscape:collect="always"
       xlink:href="#linearGradient937"
       id="radialGradient931"
       cx="24"
       cy="-25.510197"
       fx="24"
       fy="-25.510197"
       r="23.352715"
       gradientUnits="userSpaceOnUse"
       gradientTransform="matrix(-1.5039246,-4.0741864e-8,1.7128632e-8,-0.63227767,60.09419,-15.281804)" />
    <radialGradient
       inkscape:collect="always"
       xlink:href="#linearGradient937"
       id="radialGradient961"
       gradientUnits="userSpaceOnUse"
       gradientTransform="matrix(-1.5039246,-4.0741864e-8,1.7128632e-8,-0.63227767,60.09419,-15.281804)"
       cx="24"
       cy="-98.13781"
       fx="24"
       fy="-98.13781"
       r="23.352715" />
    <radialGradient
       inkscape:collect="always"
       xlink:href="#linearGradient969"
       id="radialGradient973"
       cx="45.526684"
       cy="46.340717"
       fx="45.526684"
       fy="46.340717"
       r="23.352715"
       gradientUnits="userSpaceOnUse"
       gradientTransform="matrix(-1.9218065,0.04333547,-0.04341397,-1.9252875,135.03199,133.587)" />
  </defs>
  <sodipodi:namedview
     pagecolor="#ffffff"
     bordercolor="#666666"
     borderopacity="1"
     objecttolerance="10"
     gridtolerance="10"
     guidetolerance="10"
     inkscape:pageopacity="0"
     inkscape:pageshadow="2"
     inkscape:window-width="2560"
     inkscape:window-height="1391"
     id="namedview4"
     showgrid="false"
     units="px"
     showguides="false"
     inkscape:zoom="15.635611"
     inkscape:cx="35.10161"
     inkscape:cy="26.611095"
     inkscape:window-x="1680"
     inkscape:window-y="0"
     inkscape:window-maximized="1"
     inkscape:current-layer="svg2" />
  <rect
     style="fill:url(#linearGradient927);fill-opacity:1;stroke:#000000;stroke-width:0.98286396;stroke-linecap:round;stroke-linejoin:round;stroke-miterlimit:4;stroke-dasharray:none;stroke-opacity:1"
     id="rect854"
     width="46.705429"
     height="46.705429"
     x="0.64728576"
     y="0.64728576"
     rx="2.9749639"
     ry="2.9749639" />
  <path
     sodipodi:nodetypes="csssssssssscsc"
     inkscape:connector-curvature="0"
     id="path842"
     d="M 10.763341,22.855388 C 8.5397162,20.614871 9.2416014,19.157379 9.3613934,18.061631 9.5066095,16.733327 17.411288,9.5142714 23.923561,8.4741166 c 6.512274,-1.0401548 12.934099,0 16.868598,5.9243604 3.934499,5.92436 1.175827,11.758272 0.407017,13.522012 -0.76881,1.763741 -4.599115,5.559975 -6.81709,6.434681 -2.147334,0.846848 -3.463525,0.121486 -4.865472,0.438055 -1.401948,0.316569 -4.598122,0.770141 -6.723656,1.6294 -2.125534,0.859258 -3.934499,1.944637 -5.69824,2.261206 C 15.330978,39.0004 10.944238,38.45771 8.9543763,37.236659 6.9645149,36.015607 6.6027219,31.719316 6.8288426,30.45304 7.0549632,29.186765 7.0549632,28.282282 7.733325,27.965714 c 0.6783619,-0.316569 2.30643,-0.587914 2.668223,-0.949707 0.361793,-0.361793 0.361793,-4.160619 0.361793,-4.160619 z"
     style="fill:#325e82;fill-rule:evenodd;stroke:none;stroke-width:1;stroke-linecap:butt;stroke-linejoin:miter;stroke-miterlimit:4;stroke-dasharray:none;stroke-opacity:1;fill-opacity:1" />
  <path
     id="path851"
     style="fill:#b0c4de;fill-rule:evenodd;stroke:none;stroke-width:1px;stroke-linecap:butt;stroke-linejoin:miter;stroke-opacity:1"
     d="m 15.733315,12.184322 c 3.261785,2.750132 12.343618,-3.0059588 17.204317,0.255826 4.860699,3.261785 10.233051,7.099179 5.052569,18.163665 l 3.208975,-2.683324 c 0.76881,-1.76374 3.527482,-7.597652 -0.407017,-13.522012 C 36.85766,8.4741166 30.411827,7.2934224 23.923561,8.4741166 19.622866,9.2567303 17.776648,10.807694 15.733315,12.184322 Z"
     inkscape:connector-curvature="0"
     sodipodi:nodetypes="csccssc" />
  <path
     style="fill:none;fill-rule:evenodd;stroke:#325e82;stroke-width:1px;stroke-linecap:butt;stroke-linejoin:miter;stroke-opacity:1"
     d="m 16.728246,10.918047 c 3.261785,2.750132 12.279661,-2.5582632 17.14036,0.703522 4.860699,3.261785 10.360965,7.482918 5.180483,18.547404"
     id="path840"
     inkscape:connector-curvature="0"
     sodipodi:nodetypes="csc" />
  <path
     id="path846"
     style="fill:#a9a9a9;fill-rule:evenodd;stroke:none;stroke-width:1;stroke-linecap:butt;stroke-linejoin:miter;stroke-miterlimit:4;stroke-dasharray:none;stroke-opacity:1"
     d="M 22.781652,36.253033 C 20.656118,37.112291 18.858459,38.36726 17.094718,38.683829 15.330978,39.0004 10.944238,38.45771 8.9543763,37.236659 6.9645149,36.015607 6.6027219,31.719316 6.8288426,30.45304 7.0549632,29.186765 7.0549632,28.282282 7.733325,27.965714 8.4116869,27.649145 10.039755,27.3778 10.401548,27.016007 l 10.582445,-1.130603 2.894344,3.979722 c -0.305427,2.09626 -0.692262,4.558901 -1.096685,6.387907 z"
     inkscape:connector-curvature="0"
     sodipodi:nodetypes="ccssccccc" />
  <path
     style="fill:none;fill-opacity:1;fill-rule:evenodd;stroke:#000000;stroke-width:1;stroke-linecap:butt;stroke-linejoin:miter;stroke-miterlimit:4;stroke-dasharray:none;stroke-opacity:1"
     d="M 10.763341,22.855388 C 8.5397162,20.614871 9.2416014,19.157379 9.3613934,18.061631 9.5066095,16.733327 17.411288,9.5142714 23.923561,8.4741166 c 6.512274,-1.0401548 12.934099,0 16.868598,5.9243604 3.934499,5.92436 1.175827,11.758272 0.407017,13.522012 -0.76881,1.763741 -4.599115,5.559975 -6.81709,6.434681 -2.147334,0.846848 -3.463525,0.121486 -4.865472,0.438055 -1.401948,0.316569 -4.598122,0.770141 -6.723656,1.6294 -2.125534,0.859258 -3.934499,1.944637 -5.69824,2.261206 C 15.330978,39.0004 10.944238,38.45771 8.9543763,37.236659 6.9645149,36.015607 6.6027219,31.719316 6.8288426,30.45304 7.0549632,29.186765 7.0549632,28.282282 7.733325,27.965714 c 0.6783619,-0.316569 2.30643,-0.587914 2.668223,-0.949707 0.361793,-0.361793 0.361793,-4.160619 0.361793,-4.160619 z"
     id="path817"
     inkscape:connector-curvature="0"
     sodipodi:nodetypes="csssssssssscsc" />
  <path
     style="fill:#87cefa;fill-rule:evenodd;stroke:#000000;stroke-width:1;stroke-linecap:butt;stroke-linejoin:miter;stroke-opacity:1;stroke-miterlimit:4;stroke-dasharray:none"
     d="m 10.763341,22.855388 14.69784,-1.718517 2.84912,0.994931 -1.944637,4.658084 -5.381671,-0.904482 -10.265876,1.175827 z"
     id="path819"
     inkscape:connector-curvature="0" />
  <path
     style="fill:none;fill-rule:evenodd;stroke:#000000;stroke-width:1;stroke-linecap:butt;stroke-linejoin:miter;stroke-opacity:1;stroke-miterlimit:4;stroke-dasharray:none"
     d="m 20.983993,25.885404 2.894344,3.979722 -0.904483,6.647947"
     id="path821"
     inkscape:connector-curvature="0"
     sodipodi:nodetypes="ccc" />
  <path
     style="fill:#4169e1;fill-opacity:1;stroke:#000000;stroke-width:1;stroke-linecap:round;stroke-linejoin:bevel;stroke-miterlimit:4;stroke-dasharray:none;stroke-opacity:1"
     id="path823"
     sodipodi:type="arc"
     sodipodi:cx="4.747076"
     sodipodi:cy="21.97579"
     sodipodi:rx="1.7863529"
     sodipodi:ry="0.94970655"
     sodipodi:start="3.9269908"
     sodipodi:end="3.9163605"
     d="m 3.4839338,21.304246 a 1.7863529,0.94970655 0 0 1 2.5229231,-0.0018 1.7863529,0.94970655 0 0 1 0.010057,1.341291 1.7863529,0.94970655 0 0 1 -2.5228696,0.0089 1.7863529,0.94970655 0 0 1 -0.023467,-1.341244"
     transform="rotate(-22.579204)"
     sodipodi:open="true" />
  <path
     style="fill:#808080;fill-rule:evenodd;stroke:#000000;stroke-width:0.74099928px;stroke-linecap:round;stroke-linejoin:round;stroke-opacity:1"
     d="m 8.8407396,30.548349 5.2444784,0.05027 -0.08378,5.680119 -4.9093685,-0.737242 z"
     id="path836"
     inkscape:connector-curvature="0"
     sodipodi:nodetypes="ccccc" />
  <path
     id="path831"
     style="fill:none;fill-rule:evenodd;stroke:#000000;stroke-width:0.74099928;stroke-linecap:round;stroke-linejoin:round;stroke-miterlimit:4;stroke-dasharray:none;stroke-opacity:1"
     d="m 9.9999691,34.350226 3.0708069,0.380412 M 13.064904,33.2634 9.9907647,33.089096 m -0.065315,-1.291725 3.0825176,0.03229"
     inkscape:connector-curvature="0"
     sodipodi:nodetypes="cccccc" />
  <path
     style="fill:none;fill-rule:evenodd;stroke:#000000;stroke-width:1;stroke-linecap:round;stroke-linejoin:round;stroke-opacity:1;stroke-miterlimit:4;stroke-dasharray:none"
     d="m 7.6428768,28.508403 3.3013612,0.180897 11.170358,-0.949707 5.472119,1.040154 3.165689,-7.552428 -4.748533,-1.763741 -16.4163569,1.944637"
     id="path834"
     inkscape:connector-curvature="0"
     sodipodi:nodetypes="ccccccc" />
  <path
     style="fill:#224043;fill-rule:evenodd;stroke:#000000;stroke-width:1px;stroke-linecap:butt;stroke-linejoin:miter;stroke-opacity:1;fill-opacity:1"
     d="m 15.098295,39.281292 c -0.781942,0.663785 -2.261756,4.91235 -0.388281,5.32901 1.873475,0.41666 9.674842,-4.657856 17.093253,-4.407127 7.418411,0.25073 12.273784,-3.97628 13.158203,-7.169012 0.884419,-3.192732 1.100898,-4.344501 -1.918697,-5.116525 -3.019595,-0.772024 -3.095076,0.404354 -4.31025,1.811399 -0.611049,0.70753 -1.620996,2.969898 -5.15667,3.93092 -3.495618,0.950134 -7.609552,0.73131 -9.65885,2.003405 -4.12208,2.558768 -8.036766,2.954145 -8.818708,3.61793 z"
     id="path838"
     inkscape:connector-curvature="0"
     sodipodi:nodetypes="zzzzzsssz" />
  <rect
     ry="2.9749639"
     rx="2.9749639"
     y="0.64728576"
     x="0.64728576"
     height="46.705429"
     width="46.705429"
     id="rect963"
     style="fill:url(#radialGradient973);fill-opacity:1;stroke:none;stroke-width:0.98286396;stroke-linecap:round;stroke-linejoin:round;stroke-miterlimit:4;stroke-dasharray:none;stroke-opacity:1" />
  <rect
     ry="2.9749639"
     rx="2.9749639"
     y="0.64728576"
     x="0.64728576"
     height="46.705429"
     width="46.705429"
     id="rect929"
     style="fill:url(#radialGradient931);fill-opacity:1;stroke:none;stroke-width:0.98286396;stroke-linecap:round;stroke-linejoin:round;stroke-miterlimit:4;stroke-dasharray:none;stroke-opacity:1" />
  <rect
     style="fill:url(#radialGradient961);fill-opacity:1;stroke:none;stroke-width:0.98286396;stroke-linecap:round;stroke-linejoin:round;stroke-miterlimit:4;stroke-dasharray:none;stroke-opacity:1"
     id="rect959"
     width="46.705429"
     height="46.705429"
     x="0.64728576"
     y="0.64728576"
     rx="2.9749639"
     ry="2.9749639" />
  <path
     id="rect998"
     style="fill:#dcdcdc;fill-opacity:0.47572815;stroke:none;stroke-width:0.91431987;stroke-linecap:round;stroke-linejoin:round;stroke-miterlimit:4;stroke-dasharray:none;stroke-opacity:1;fill-rule:evenodd"
     d="M 5.0433769,2.2758844 H 42.956623 c 1.53319,0 2.767492,1.2343017 2.767492,2.7674925 V 42.956623 c 0,1.53319 -1.234302,2.767492 -2.767492,2.767492 H 5.0433769 c -1.5331908,0 -2.7674925,-1.234302 -2.7674925,-2.767492 V 5.0433769 c 0,-1.5331908 1.2343017,-2.7674925 2.7674925,-2.7674925 z M 3.6222497,0.64728576 H 44.377751 c 1.64813,0 2.974964,1.32683394 2.974964,2.97496394 V 44.377751 c 0,1.64813 -1.326834,2.974964 -2.974964,2.974964 H 3.6222497 c -1.64813,0 -2.97496394,-1.326834 -2.97496394,-2.974964 V 3.6222497 c 0,-1.64813 1.32683394,-2.97496394 2.97496394,-2.97496394 z" />
  <rect
     ry="2.9749639"
     rx="2.9749639"
     y="0.64728576"
     x="0.64728576"
     height="46.705429"
     width="46.705429"
     id="rect907"
     style="fill:none;fill-opacity:1;stroke:#000000;stroke-width:0.98286396;stroke-linecap:round;stroke-linejoin:round;stroke-miterlimit:4;stroke-dasharray:none;stroke-opacity:1" />
  <rect
     style="fill:none;fill-opacity:1;stroke:#000000;stroke-width:0.91431987;stroke-linecap:round;stroke-linejoin:round;stroke-miterlimit:4;stroke-dasharray:none;stroke-opacity:1"
     id="rect994"
     width="43.448231"
     height="43.448231"
     x="2.2758844"
     y="2.2758844"
     rx="2.7674925"
     ry="2.7674925" />
</svg>
